# AST/ASF file generated using VICON BodyLanguage
# -----------------------------------------------
:version 1.10
:name VICON
:units
  mass 1.0
  length 0.45
  angle deg
:documentation
   .ast/.asf automatically generated from VICON data using
   VICON BodyBuilder and BodyLanguage model FoxedUp or BRILLIANT.MOD
:root
   order TX TY TZ RX RY RZ
   axis XYZ
   position 0 0 0  
   orientation 0 0 0 
:bonedata
  begin
     id 1 
     name lhipjoint
     direction 0.623529 -0.717805 0.309788 
     length 2.23224 
     axis 0 0 0  XYZ
  end
  begin
     id 2 
     name lfemur
     direction 0.34202 -0.939693 0  
     length 7.11402  
     axis 0 0 20  XYZ
    dof rx ry rz
    limits (-160.0 20.0)
           (-70.0 70.0)
           (-60.0 70.0)
  end
  begin
     id 3 
     name ltibia
     direction 0.34202 -0.939693 0   
     length 6.78496   
     axis 0 0 20   XYZ
    dof rx
    limits (-10.0 170.0)
  end
  begin
     id 4 
     name lfoot
     direction 0.125078 -0.343648 0.930732   
     length 1.84054   
     axis -90 7.62852e-016 20   XYZ
    dof rx rz
    limits (-45.0 90.0)
           (-70.0 20.0)
  end
  begin
     id 5 
     name ltoes
     direction 1.53565e-011 -4.21893e-011 1   
     length 0.916474   
     axis -90 7.62852e-016 20   XYZ
    dof rx
    limits (-90.0 20.0)
  end
  begin
     id 6 
     name rhipjoint
     direction -0.564688 -0.757748 0.327026   
     length 2.11457  
     axis 0 0 0  XYZ 
  end
  begin
     id 7 
     name rfemur
     direction -0.34202 -0.939693 0   
     length 7.14609   
     axis 0 0 -20   XYZ
    dof rx ry rz
    limits (-160.0 20.0)
           (-70.0 70.0)
           (-70.0 60.0)
  end
  begin
     id 8 
     name rtibia
     direction -0.34202 -0.939693 0   
     length 6.78101   
     axis 0 0 -20   XYZ
    dof rx
    limits (-10.0 170.0)
 end
 begin
     id 9 
     name rfoot
     direction -0.0992671 -0.272734 0.956955   
     length 1.96168  
     axis -90 -7.62852e-016 -20   XYZ
    dof rx rz
    limits (-45.0 90.0)
           (-20.0 70.0)
  end
  begin
     id 10 
     name rtoes
     direction -1.5356e-011 -4.21891e-011 1   
     length 0.982933   
     axis -90 -7.62852e-016 -20   XYZ
    dof rx
    limits (-90.0 20.0)
  end
  begin
     id 11 
     name lowerback
     direction -0.00596953 0.998668 0.0512524   
     length 1.87557   
     axis 0 0 0   XYZ
    dof rx ry rz
    limits (-20.0 45.0)
           (-30.0 30.0)
           (-30.0 30.0)
  end
  begin
     id 12 
     name upperback
     direction 0.00584879 0.999652 0.0257308   
     length 1.87883   
     axis 0 0 0   XYZ
    dof rx ry rz
    limits (-20.0 45.0)
           (-30.0 30.0)
           (-30.0 30.0)
  end
  begin
     id 13 
     name thorax
     direction 0.010104 0.999947 0.00178881   
     length 1.87779   
     axis 0 0 0   XYZ
    dof rx ry rz
    limits (-20.0 45.0)
           (-30.0 30.0)
           (-30.0 30.0)
  end
  begin
     id 14 
     name lowerneck
     direction 0.0120771 0.995934 -0.0892773   
     length 1.40897   
     axis 0 0 0   XYZ
    dof rx ry rz
    limits (-20.0 45.0)
           (-30.0 30.0)
           (-30.0 30.0)
  end
  begin
     id 15 
     name upperneck
     direction -0.030568 0.999465 -0.0116366   
     length 1.38661   
     axis 0 0 0   XYZ
    dof rx ry rz
    limits (-20.0 45.0)
           (-30.0 30.0)
           (-30.0 30.0)
  end
  begin
     id 16
     name head
     direction -0.0170715 0.999854 -0.00104426  
     length 1.47052  
     axis 0 0 0   XYZ
    dof rx ry rz
    limits (-20.0 45.0)
           (-30.0 30.0)
           (-30.0 30.0)
  end
  begin
     id 17 
     name lclavicle
     direction 0.977763 0.206143 0.038532  
     length 3.02424  
     axis 0 0 0   XYZ
    dof ry rz
    limits (-20.0 10.0)
           (0.0 20.0)
  end
  begin
     id 18 
     name lhumerus
     direction 1 -4.48965e-011 -2.62654e-027   
     length 4.68382   
     axis 180 -30 -90   XYZ
    dof rx ry rz
    limits (-60.0 90.0)
           (-90.0 90.0)
           (-90.0 90.0)
  end
  begin
     id 19
     name lradius
     direction 1 -4.48973e-011 -1.54954e-027   
     length 2.98124   
     axis 180 -30 -90   XYZ
    dof rx
    limits (-10.0 170.0)
  end
  begin
     id 20
     name lwrist
     direction 1 -4.48959e-011 7.20928e-028   
     length 1.49062   
     axis -5.52449e-016 90 90   XYZ
    dof ry
    limits (-180.0 0.0)
 end
  begin
     id 21 
     name lhand
     direction 1 -4.48971e-011 1.44186e-027   
     length 0.707595   
     axis -9.20027e-016 90 90   XYZ
    dof rx rz
    limits (-90.0 90.0)
           (-45.0 45.0)
  end
  begin
     id 22 
     name lfingers
     direction 1 -4.48985e-011 2.88371e-027   
     length 0.570481   
     axis -1.84005e-015 90 90   XYZ
    dof rx
    limits (0.0 90.0)
  end
  begin
     id 23
     name lthumb
     direction 0.707107 -6.34929e-011 0.707107   
     length 0.819101   
     axis -90 45 2.85299e-015   XYZ
    dof rx rz
    limits (-45.0 45.0)
           (-45.0 45.0)
  end
  begin
     id 24 
     name rclavicle
     direction -0.958661 0.284411 -0.00895327   
     length 3.11921  
     axis 0 0 0   XYZ 
    dof ry rz
    limits (-10.0 20.0)
           (-20.0 0.0)
  end
  begin
     id 25 
     name rhumerus
     direction -1 -4.48963e-011 -4.22193e-027  
     length 4.75876   
     axis 180 30 90   XYZ
    dof rx ry rz
    limits (-90.0 60.0)
           (-90.0 90.0)
           (-90.0 90.0)
  end
  begin
     id 26 
     name rradius
     direction -1 -4.48968e-011 -1.07616e-027   
     length 2.93293   
     axis 180 30 90   XYZ
    dof rx
    limits (-10.0 170.0)
  end
  begin
     id 27 
     name rwrist
     direction -1 -4.48965e-011 7.20928e-028   
     length 1.46647   
     axis -5.52449e-016 -90 -90   XYZ
    dof ry
    limits (-180.0 0.0)
  end
  begin
     id 28
     name rhand
     direction -1 -4.48971e-011 1.44186e-027   
     length 0.831748   
     axis -9.20027e-016 -90 -90   XYZ
    dof rx rz
    limits (-90.0 90.0)
           (-45.0 45.0)
  end
  begin
     id 29
     name rfingers
     direction -1 -4.48961e-011 2.88371e-027   
     length 0.670577   
     axis -1.84005e-015 -90 -90   XYZ
    dof rx
    limits (0.0 90.0)
  end
  begin
     id 30
     name rthumb
     direction -0.707107 -6.34929e-011 0.707107   
     length 0.962818   
     axis -90 -45 -2.85299e-015   XYZ
    dof rx rz
    limits (-45.0 45.0)
           (-45.0 45.0)
  end
:hierarchy
  begin
    root lhipjoint rhipjoint lowerback
    lhipjoint lfemur
    lfemur ltibia
    ltibia lfoot
    lfoot ltoes
    rhipjoint rfemur
    rfemur rtibia
    rtibia rfoot
    rfoot rtoes
    lowerback upperback
    upperback thorax
    thorax lowerneck lclavicle rclavicle
    lowerneck upperneck
    upperneck head
    lclavicle lhumerus
    lhumerus lradius
    lradius lwrist
    lwrist lhand lthumb
    lhand lfingers
    rclavicle rhumerus
    rhumerus rradius
    rradius rwrist
    rwrist rhand rthumb
    rhand rfingers
  end

#!OML:ASF E:\id_vita\Project 1\Capture day 1\Session 1\Female.ASF
:FULLY-SPECIFIED
:DEGREES
190
root -15.8937 8.69908 -2.59949 -142.358 -63.9156 188.732
lowerback 18.8057 3.94411 -6.33686
upperback 5.86262 3.40514 -1.36864
thorax -4.47324 1.46996 1.37609
lowerneck -10.944 7.67003 -0.722034
upperneck -18.0514 7.65175 -17.5843
head -2.84703 4.02385 -5.20562
rclavicle -4.17448e-014 -5.81942e-014
rhumerus 33.3817 25.2528 -95.9364
rradius 27.8903
rwrist 1.99184
rhand -33.4117 12.0207
rfingers 7.12502
rthumb -6.61164 -17.8561
lclavicle -4.17448e-014 -5.81942e-014
lhumerus 109.342 26.9718 251.191
lradius 13.8339
lwrist -174.017
lhand -39.5284 57.2154
lfingers 7.12502
lthumb -12.5131 86.8208
rfemur -130.163 -22.894 46.9827
rtibia 135.622
rfoot -35.3796 9.8965
rtoes -8.31099
lfemur -142.551 24.5745 -48.899
ltibia 133.218
lfoot -29.8894 -13.1623
ltoes 0.869841
191
root -15.8914 8.67883 -2.58973 -142.036 -63.8177 188.309
lowerback 18.9433 3.75887 -6.40213
upperback 5.84797 3.11846 -1.6246
thorax -4.52929 1.33014 1.20053
lowerneck -11.6761 8.0481 0.136152
upperneck -17.4986 8.17886 -18.1784
head -2.43184 4.19183 -5.46242
rclavicle -9.54166e-015 2.96189e-014
rhumerus 33.2431 24.744 -97.2681
rradius 27.0048
rwrist 3.52609
rhand -34.0352 12.6671
rfingers 7.12502
rthumb -7.21351 -17.19
lclavicle -9.54166e-015 2.96189e-014
lhumerus 109.301 26.5424 250.716
lradius 13.9307
lwrist -174.097
lhand -39.8001 57.425
lfingers 7.12502
lthumb -12.7751 87.0142
rfemur -130.582 -23.7642 47.3409
rtibia 136.026
rfoot -35.5848 11.9212
rtoes -4.86062
lfemur -142.633 24.478 -49.1822
ltibia 133.383
lfoot -29.9808 -13.1559
ltoes 0.11459
192
root -15.8897 8.66092 -2.58236 -142.08 -63.6479 188.178
lowerback 18.951 3.76561 -6.51441
upperback 5.86621 3.09775 -1.69178
thorax -4.51393 1.31769 1.19686
lowerneck -11.0524 8.07007 0.16076
upperneck -18.2263 8.0534 -18.2725
head -2.75401 4.19116 -5.54977
rclavicle 3.18055e-015 4.59193e-014
rhumerus 33.2376 24.6183 -97.5218
rradius 26.4228
rwrist 4.44422
rhand -34.2571 13.0567
rfingers 7.12502
rthumb -7.42776 -16.7929
lclavicle 3.18055e-015 4.59193e-014
lhumerus 109.085 26.4041 250.482
lradius 14.2245
lwrist -174.252
lhand -39.9341 57.2543
lfingers 7.12502
lthumb -12.9043 86.8353
rfemur -131.068 -24.9946 47.7621
rtibia 136.876
rfoot -35.7834 15.0266
rtoes 1.76332
lfemur -142.757 24.6809 -49.5274
ltibia 133.604
lfoot -30.2059 -13.1889
ltoes -0.275886
193
root -15.8718 8.67234 -2.57332 -142.412 -63.6747 188.44
lowerback 18.9057 3.61144 -6.41454
upperback 5.95164 2.90714 -1.81888
thorax -4.37439 1.21744 1.05468
lowerneck -11.8427 8.35718 0.646164
upperneck -17.7595 8.51644 -18.3454
head -2.41291 4.33539 -5.58571
rclavicle -3.97569e-014 -5.96354e-014
rhumerus 33.4697 25.2395 -97.6283
rradius 26.205
rwrist 4.39451
rhand -34.7267 13.7372
rfingers 7.12502
rthumb -7.88104 -16.0959
lclavicle -3.97569e-014 -5.96354e-014
lhumerus 108.964 25.7639 250.369
lradius 14.5196
lwrist -174.723
lhand -39.7583 56.9539
lfingers 7.12502
lthumb -12.7347 86.5455
rfemur -132.267 -23.6 47.2773
rtibia 136.759
rfoot -33.7931 14.0867
rtoes 0.529566
lfemur -142.684 24.7677 -49.4859
ltibia 133.516
lfoot -30.2856 -13.1389
ltoes -0.186634
194
root -15.8691 8.66385 -2.56733 -143.138 -63.5535 188.977
lowerback 19.0346 3.55798 -6.2336
upperback 6.00409 2.85573 -1.79588
thorax -4.37557 1.18831 0.986074
lowerneck -12.1038 8.42275 0.25597
upperneck -17.5798 8.71405 -17.9883
head -2.34846 4.42965 -5.38892
rclavicle -3.89618e-014 4.29375e-014
rhumerus 33.1326 25.8847 -97.4038
rradius 27.0949
rwrist 3.98881
rhand -35.1813 13.6345
rfingers 7.12502
rthumb -8.31974 -16.1816
lclavicle -3.89618e-014 4.29375e-014
lhumerus 108.952 25.3678 250.271
lradius 14.6606
lwrist -174.293
lhand -39.9974 57.3203
lfingers 7.12502
lthumb -12.9653 86.8974
rfemur -131.927 -22.9911 47.2496
rtibia 136.405
rfoot -33.6647 12.6875
rtoes -3.16365
lfemur -142.833 25.2639 -49.5872
ltibia 133.639
lfoot -30.4367 -13.3121
ltoes -0.801238
195
root -15.8747 8.62315 -2.56657 -143.563 -63.4627 189.324
lowerback 18.9081 3.73689 -6.27516
upperback 5.98843 3.11635 -1.50219
thorax -4.36094 1.31712 1.26629
lowerneck -11.4097 8.14287 -0.558494
upperneck -18.0052 8.32342 -17.6351
head -2.69176 4.32592 -5.20718
rclavicle 2.0276e-014 -1.13307e-014
rhumerus 32.5375 26.0906 -96.6763
rradius 28.1437
rwrist 3.26654
rhand -35.8513 13.0896
rfingers 7.12502
rthumb -8.96633 -16.6998
lclavicle 2.0276e-014 -1.13307e-014
lhumerus 108.763 25.716 250.197
lradius 14.6787
lwrist -173.28
lhand -39.6386 57.7562
lfingers 7.12502
lthumb -12.6194 87.355
rfemur -130.157 -22.5094 47.5217
rtibia 135.361
rfoot -35.426 6.3999
rtoes -17.4818
lfemur -143.367 25.6413 -49.6723
ltibia 133.916
lfoot -30.2341 -13.9521
ltoes -0.764172
196
root -15.869 8.59804 -2.56344 -143.927 -63.3947 189.678
lowerback 18.8641 3.74288 -6.30748
upperback 6.02579 3.12714 -1.41055
thorax -4.30521 1.31932 1.38247
lowerneck -12.3731 8.25761 -0.819247
upperneck -17.3733 8.65955 -17.4166
head -2.35307 4.42557 -5.02905
rclavicle -1.59028e-014 -3.0911e-014
rhumerus 32.3036 26.2564 -96.7993
rradius 28.551
rwrist 2.74127
rhand -37.6921 13.7008
rfingers 7.12502
rthumb -10.7423 -16.0046
lclavicle -1.59028e-014 -3.0911e-014
lhumerus 108.44 25.604 249.687
lradius 14.6611
lwrist -172.475
lhand -37.062 56.8093
lfingers 7.12502
lthumb -10.1344 86.5452
rfemur -130.552 -22.1604 47.8483
rtibia 135.435
rfoot -35.3056 4.96636
rtoes -20.564
lfemur -143.824 25.968 -49.8175
ltibia 134.093
lfoot -30.1257 -14.6544
ltoes -0.141076
197
root -15.859 8.5853 -2.55511 -143.819 -63.2396 189.614
lowerback 18.7816 3.82069 -6.60756
upperback 5.90016 3.20186 -1.21809
thorax -4.42752 1.36553 1.73786
lowerneck -14.2818 8.61234 -0.761459
upperneck -15.3432 9.50833 -18.007
head -1.33395 4.6659 -5.0405
rclavicle -3.49861e-014 -1.61016e-014
rhumerus 31.5832 26.6034 -96.4356
rradius 29.5139
rwrist 2.18185
rhand -38.9691 14.7723
rfingers 7.12502
rthumb -11.9739 -14.8653
lclavicle -3.49861e-014 -1.61016e-014
lhumerus 108.409 25.6768 249.561
lradius 14.6311
lwrist -171.405
lhand -38.85 57.2836
lfingers 7.12502
lthumb -11.859 86.9278
rfemur -131.233 -22.5224 48.113
rtibia 135.526
rfoot -34.9525 7.96579
rtoes -15.5098
lfemur -144.099 26.1668 -50.0854
ltibia 134.291
lfoot -30.3833 -14.9619
ltoes -0.0870872
198
root -15.856 8.5591 -2.55086 -143.517 -63.0772 189.207
lowerback 18.783 4.02397 -7.04337
upperback 5.6141 3.42343 -0.894341
thorax -4.79517 1.49909 2.26603
lowerneck -10.5314 7.99253 -1.68769
upperneck -17.881 8.17732 -17.5804
head -2.87588 4.36338 -5.04257
rclavicle 5.86415e-014 7.7526e-015
rhumerus 30.4512 26.804 -95.7495
rradius 30.67
rwrist 1.1749
rhand -37.9037 14.6023
rfingers 7.12502
rthumb -10.9464 -15.0924
lclavicle 5.86415e-014 7.7526e-015
lhumerus 108.901 26.0755 250.154
lradius 14.5514
lwrist -169.722
lhand -38.4946 54.8222
lfingers 7.12502
lthumb -11.5163 84.4858
rfemur -130.975 -22.733 48.3177
rtibia 135.591
rfoot -35.9709 4.46354
rtoes -22.5756
lfemur -144.333 26.3399 -50.4362
ltibia 134.555
lfoot -30.5614 -15.2598
ltoes -0.456817
